<svg width="28" height="14" viewBox="0 0 28 14" fill="none" xmlns="http://www.w3.org/2000/svg">
<path d="M15.869 0V5.36134C15.869 7.28707 14.8212 9.07242 13.1308 10.026C12.323 10.4816 11.4031 10.7227 10.4727 10.7227H4.47113V5.36134C4.47113 3.4356 5.51893 1.65025 7.20927 0.696656C7.99579 0.254293 8.88629 0.0132444 9.79011 0V2.55087C8.26507 2.59325 7.03864 3.83823 7.03864 5.36134V8.1718H10.4727C12.0324 8.1718 13.3014 6.91093 13.3014 5.36134V0H15.869Z" fill="#064E3B"/>
<path d="M2.7888 0.0211792V10.7438H0V0.0211792H2.7888Z" fill="#064E3B"/>
<path d="M28 0L24.1767 9.54922C23.8915 10.2379 23.4889 11.1253 22.881 11.8643C21.9932 12.9424 21.012 13.4192 19.4896 13.504C19.327 13.5119 19.1537 13.5172 18.9431 13.5172C18.7884 13.5172 18.1086 13.5172 18.1086 13.5172V11.014H18.6818C19.9909 11.014 20.8414 10.4922 21.3879 9.42207L17.4847 0H20.4601L22.865 6.06064L25.1366 0H28Z" fill="#064E3B"/>
</svg>
